# xmcd
#
# Track frame offsets: 
#        150
#        23849
#        52879
#        85286
#        111812
#        145810
#        171797
#        194001
#        208778
#        224509
#
# Disc length: 3270 seconds
#
# Revision: 0
# Processed by: cddbd v1.5.2PL0 Copyright (c) Steve Scherf et al.
# Submitted via: ExactAudioCopy v1.3
#
DISCID=920cc40a
DTITLE=Theodis Ealey - Blues Is Calling My Name
DYEAR=2018
DGENRE=Modern Electric Blues
TTITLE0=Blues Is Calling My Name
TTITLE1=Play Me That Old Time Blues
TTITLE2=Hurtsville
TTITLE3=The Goody Sack
TTITLE4=Catfish Blues
TTITLE5=Wanna Be Your Friend
TTITLE6=Lil Brown Eyes
TTITLE7=This Is A Song For My Daughter
TTITLE8=So Tired
TTITLE9=This Is The Reason For The Season
EXTD=
EXTT0=
EXTT1=
EXTT2=
EXTT3=
EXTT4=
EXTT5=
EXTT6=
EXTT7=
EXTT8=
EXTT9=
PLAYORDER=
